<svg width="32" height="23" viewBox="0 0 32 23" fill="none" xmlns="http://www.w3.org/2000/svg">
<path d="M31.3307 3.87216C31.1499 3.22221 30.7934 2.62901 30.2968 2.15194C29.8003 1.67488 29.1811 1.33071 28.5013 1.1539C26.0067 0.51123 16 0.51123 16 0.51123C16 0.51123 5.99333 0.51123 3.49733 1.1539C2.81788 1.33102 2.19906 1.67532 1.70277 2.15235C1.20648 2.62938 0.850122 3.22242 0.669333 3.87216C0 6.26974 0 11.271 0 11.271C0 11.271 0 16.2723 0.669333 18.6699C0.850115 19.3199 1.20663 19.9131 1.70319 20.3901C2.19974 20.8672 2.8189 21.2113 3.49867 21.3882C5.99333 22.0308 16 22.0308 16 22.0308C16 22.0308 26.0067 22.0308 28.5027 21.3882C29.1825 21.2115 29.8017 20.8673 30.2983 20.3903C30.7949 19.9132 31.1513 19.3199 31.332 18.6699C32 16.2723 32 11.271 32 11.271C32 11.271 32 6.26974 31.3307 3.87216ZM12.7267 15.8116V6.73045L21.0907 11.271L12.7267 15.8116Z" fill="white"/>
</svg>
